<svg width="0" height="0" class="hidden">
  <symbol xmlns="http://www.w3.org/2000/svg" viewBox="0 0 512 512" id="chevron-back-outline">
    <path fill="none" stroke-linecap="round" stroke-linejoin="round" stroke-width="48" d="M328 112L184 256l144 144"></path>
  </symbol>
  <symbol xmlns="http://www.w3.org/2000/svg" viewBox="0 0 512 512" id="chevron-forward-outline">
    <path fill="none" stroke-linecap="round" stroke-linejoin="round" stroke-width="48" d="M184 112l144 144-144 144"></path>
  </symbol>
  <symbol xmlns="http://www.w3.org/2000/svg" viewBox="0 0 512 512" id="heart-outline">
    <path d="M352.92 80C288 80 256 144 256 144s-32-64-96.92-64c-52.76 0-94.54 44.14-95.08 96.81-1.1 109.33 86.73 187.08 183 252.42a16 16 0 0 0 18 0c96.26-65.34 184.09-143.09 183-252.42-.54-52.67-42.32-96.81-95.08-96.81z" fill="none"
       stroke-linecap="round" stroke-linejoin="round" stroke-width="32"></path>
  </symbol>
  <symbol xmlns="http://www.w3.org/2000/svg" viewBox="0 0 512 512" id="heart">
    <path d="M256 448a32 32 0 0 1-18-5.57c-78.59-53.35-112.62-89.93-131.39-112.8-40-48.75-59.15-98.8-58.61-153C48.63 114.52 98.46 64 159.08 64c44.08 0 74.61 24.83 92.39 45.51a6 6 0 0 0 9.06 0C278.31 88.81 308.84 64 352.92 64c60.62 0 110.45 50.52 111.08 112.64.54 54.21-18.63 104.26-58.61 153-18.77 22.87-52.8 59.45-131.39 112.8a32 32 0 0 1-18 5.56z" fill="#2c3e50"></path>
  </symbol>
  <symbol xmlns="http://www.w3.org/2000/svg" viewBox="0 0 512 512" id="search">
    <path d="M456.69 421.39L362.6 327.3a173.81 173.81 0 0 0 34.84-104.58C397.44 126.38 319.06 48 222.72 48S48 126.38 48 222.72s78.38 174.72 174.72 174.72A173.81 173.81 0 0 0 327.3 362.6l94.09 94.09a25 25 0 0 0 35.3-35.3zM97.92 222.72a124.8 124.8 0 1 1 124.8 124.8 124.95 124.95 0 0 1-124.8-124.8z"></path>
  </symbol>
  <symbol xmlns="http://www.w3.org/2000/svg" viewBox="0 0 512 512" id="person-outline">
    <path fill="none" d="M344 144c-3.92 52.87-44 96-88 96s-84.15-43.12-88-96c-4-55 35-96 88-96s92 42 88 96z" stroke-linecap="round" stroke-linejoin="round" stroke-width="40"></path>
    <path fill="none"  d="M256 304c-87 0-175.3 48-191.64 138.6C62.39 453.52 68.57 464 80 464h352c11.44 0 17.62-10.48 15.65-21.4C431.3 352 343 304 256 304z" stroke-miterlimit="10" stroke-width="40"></path>
  </symbol>
  <symbol xmlns="http://www.w3.org/2000/svg" viewBox="0 0 512 512" id="chevron-down-outline">
    <path fill="none" stroke-linecap="round" stroke-linejoin="round" stroke-width="48" d="M112 184l144 144 144-144"></path>
  </symbol>
    <symbol xmlns="http://www.w3.org/2000/svg" viewBox="0 0 512 512" id="chevron-up-outline">
    <path fill="none" stroke-linecap="round" stroke-linejoin="round" stroke-width="48" d="M112 328l144-144 144 144"></path>
  </symbol>
  <symbol xmlns="http://www.w3.org/2000/svg" viewBox="0 0 512 512" id="cart-outline">
    <circle cx="176" cy="416" r="16" fill="none" stroke-linecap="round" stroke-linejoin="round" stroke-width="32"></circle>
    <circle cx="400" cy="416" r="16" fill="none" stroke-linecap="round" stroke-linejoin="round" stroke-width="32"></circle>
    <path fill="none" stroke-linecap="round" stroke-linejoin="round" stroke-width="32" d="M48 80h64l48 272h256"></path>
    <path d="M160 288h249.44a8 8 0 0 0 7.85-6.43l28.8-144a8 8 0 0 0-7.85-9.57H128" fill="none" stroke-linecap="round" stroke-linejoin="round" stroke-width="32"></path>
  </symbol>
  <symbol xmlns="http://www.w3.org/2000/svg" viewBox="0 0 512 512" id="logo-twitter">
    <title>chon twitter</title>
    <path d="M496 109.5a201.8 201.8 0 0 1-56.55 15.3 97.51 97.51 0 0 0 43.33-53.6 197.74 197.74 0 0 1-62.56 23.5A99.14 99.14 0 0 0 348.31 64c-54.42 0-98.46 43.4-98.46 96.9a93.21 93.21 0 0 0 2.54 22.1 280.7 280.7 0 0 1-203-101.3A95.69 95.69 0 0 0 36 130.4c0 33.6 17.53 63.3 44 80.7A97.5 97.5 0 0 1 35.22 199v1.2c0 47 34 86.1 79 95a100.76 100.76 0 0 1-25.94 3.4 94.38 94.38 0 0 1-18.51-1.8c12.51 38.5 48.92 66.5 92.05 67.3A199.59 199.59 0 0 1 39.5 405.6a203 203 0 0 1-23.5-1.4A278.68 278.68 0 0 0 166.74 448c181.36 0 280.44-147.7 280.44-275.8 0-4.2-.11-8.4-.31-12.5A198.48 198.48 0 0 0 496 109.5z"></path>
  </symbol>
    <title>chon instagram</title>
    <symbol xmlns="http://www.w3.org/2000/svg" viewBox="0 0 512 512" id="logo-instagram">
    <path d="M349.33 69.33a93.62 93.62 0 0 1 93.34 93.34v186.66a93.62 93.62 0 0 1-93.34 93.34H162.67a93.62 93.62 0 0 1-93.34-93.34V162.67a93.62 93.62 0 0 1 93.34-93.34h186.66m0-37.33H162.67C90.8 32 32 90.8 32 162.67v186.66C32 421.2 90.8 480 162.67 480h186.66C421.2 480 480 421.2 480 349.33V162.67C480 90.8 421.2 32 349.33 32z"></path>
    <path d="M377.33 162.67a28 28 0 1 1 28-28 27.94 27.94 0 0 1-28 28zM256 181.33A74.67 74.67 0 1 1 181.33 256 74.75 74.75 0 0 1 256 181.33m0-37.33a112 112 0 1 0 112 112 112 112 0 0 0-112-112z"></path>
  </symbol>
   <symbol xmlns="http://www.w3.org/2000/svg" viewBox="0 0 512 512" id="logo-facebook">
    <title>chon facebook</title>
    <path d="M455.27 32H56.73A24.74 24.74 0 0 0 32 56.73v398.54A24.74 24.74 0 0 0 56.73 480H256V304h-53.55v-64H256v-51c0-57.86 40.13-89.36 91.82-89.36 24.73 0 51.33 1.86 57.51 2.68v60.43h-41.18c-28.12 0-33.48 13.3-33.48 32.9V240h67l-8.75 64h-58.25v176h124.6A24.74 24.74 0 0 0 480 455.27V56.73A24.74 24.74 0 0 0 455.27 32z"></path>
  </symbol>
    <symbol xmlns="http://www.w3.org/2000/svg" viewBox="0 0 512 512" id="cash-outline">
    <rect x="32" y="80" width="448" height="256" rx="16" ry="16" transform="rotate(180 256 208)" stroke-linejoin="round" stroke-width="32"></rect>
    <path stroke-linecap="round" stroke-linejoin="round" stroke-width="32" d="M64 384h384M96 432h320"></path>
    <circle cx="256" cy="208" r="80" stroke-linecap="round" stroke-linejoin="round" stroke-width="32"></circle>
    <path d="M480 160a80 80 0 0 1-80-80M32 160a80 80 0 0 0 80-80m368 176a80 80 0 0 0-80 80M32 256a80 80 0 0 1 80 80" fill="none" stroke="#000" stroke-linecap="round" stroke-linejoin="round" stroke-width="32"></path>
  </symbol>
  <symbol xmlns="http://www.w3.org/2000/svg" viewBox="0 0 512 512" id="grid-outline">
    <title>ionicons-v5-i</title>
    <rect x="48" y="48" width="176" height="176" rx="20" ry="20" fill="none" stroke-linecap="round" stroke-linejoin="round" stroke-width="32"></rect>
    <rect x="288" y="48" width="176" height="176" rx="20" ry="20" fill="none" stroke-linecap="round" stroke-linejoin="round" stroke-width="32"></rect>
    <rect x="48" y="288" width="176" height="176" rx="20" ry="20" fill="none" stroke-linecap="round" stroke-linejoin="round" stroke-width="32"></rect>
    <rect x="288" y="288" width="176" height="176" rx="20" ry="20" fill="none" stroke-linecap="round" stroke-linejoin="round" stroke-width="32"></rect>
  </symbol>
    <symbol xmlns="http://www.w3.org/2000/svg" viewBox="0 0 512 512" id="star-outline">
    <title>ionicons-v5-e</title>
    <path d="M480 208H308L256 48l-52 160H32l140 96-54 160 138-100 138 100-54-160z" fill="none" stroke-linejoin="round" stroke-width="32"></path>
  </symbol>
</svg>