<svg width="0" height="0" class="hidden">
  <symbol xmlns="http://www.w3.org/2000/svg" viewBox="0 0 512 512" id="chevron-back-outline">
    <path fill="none" stroke-linecap="round" stroke-linejoin="round" stroke-width="48" d="M328 112L184 256l144 144"></path>
  </symbol>
  <symbol xmlns="http://www.w3.org/2000/svg" viewBox="0 0 512 512" id="chevron-forward-outline">
    <path fill="none" stroke-linecap="round" stroke-linejoin="round" stroke-width="48" d="M184 112l144 144-144 144"></path>
  </symbol>
  <symbol xmlns="http://www.w3.org/2000/svg" viewBox="0 0 512 512" id="heart-outline">
    <path d="M352.92 80C288 80 256 144 256 144s-32-64-96.92-64c-52.76 0-94.54 44.14-95.08 96.81-1.1 109.33 86.73 187.08 183 252.42a16 16 0 0 0 18 0c96.26-65.34 184.09-143.09 183-252.42-.54-52.67-42.32-96.81-95.08-96.81z" fill="none"
       stroke-linecap="round" stroke-linejoin="round" stroke-width="32"></path>
  </symbol>
  <symbol xmlns="http://www.w3.org/2000/svg" viewBox="0 0 512 512" id="heart">
    <path d="M256 448a32 32 0 0 1-18-5.57c-78.59-53.35-112.62-89.93-131.39-112.8-40-48.75-59.15-98.8-58.61-153C48.63 114.52 98.46 64 159.08 64c44.08 0 74.61 24.83 92.39 45.51a6 6 0 0 0 9.06 0C278.31 88.81 308.84 64 352.92 64c60.62 0 110.45 50.52 111.08 112.64.54 54.21-18.63 104.26-58.61 153-18.77 22.87-52.8 59.45-131.39 112.8a32 32 0 0 1-18 5.56z" fill="#2c3e50"></path>
  </symbol>
  <symbol xmlns="http://www.w3.org/2000/svg" viewBox="0 0 512 512" id="search">
    <path d="M456.69 421.39L362.6 327.3a173.81 173.81 0 0 0 34.84-104.58C397.44 126.38 319.06 48 222.72 48S48 126.38 48 222.72s78.38 174.72 174.72 174.72A173.81 173.81 0 0 0 327.3 362.6l94.09 94.09a25 25 0 0 0 35.3-35.3zM97.92 222.72a124.8 124.8 0 1 1 124.8 124.8 124.95 124.95 0 0 1-124.8-124.8z"></path>
  </symbol>
  <symbol xmlns="http://www.w3.org/2000/svg" viewBox="0 0 512 512" id="person-outline">
    <path fill="none" d="M344 144c-3.92 52.87-44 96-88 96s-84.15-43.12-88-96c-4-55 35-96 88-96s92 42 88 96z" stroke-linecap="round" stroke-linejoin="round" stroke-width="40"></path>
    <path fill="none"  d="M256 304c-87 0-175.3 48-191.64 138.6C62.39 453.52 68.57 464 80 464h352c11.44 0 17.62-10.48 15.65-21.4C431.3 352 343 304 256 304z" stroke-miterlimit="10" stroke-width="40"></path>
  </symbol>
  <symbol xmlns="http://www.w3.org/2000/svg" viewBox="0 0 512 512" id="chevron-down-outline">
    <path fill="none" stroke-linecap="round" stroke-linejoin="round" stroke-width="48" d="M112 184l144 144 144-144"></path>
  </symbol>
    <symbol xmlns="http://www.w3.org/2000/svg" viewBox="0 0 512 512" id="chevron-up-outline">
    <path fill="none" stroke-linecap="round" stroke-linejoin="round" stroke-width="48" d="M112 328l144-144 144 144"></path>
  </symbol>
  <symbol xmlns="http://www.w3.org/2000/svg" viewBox="0 0 512 512" id="cart-outline">
    <circle cx="176" cy="416" r="16" fill="none" stroke-linecap="round" stroke-linejoin="round" stroke-width="32"></circle>
    <circle cx="400" cy="416" r="16" fill="none" stroke-linecap="round" stroke-linejoin="round" stroke-width="32"></circle>
    <path fill="none" stroke-linecap="round" stroke-linejoin="round" stroke-width="32" d="M48 80h64l48 272h256"></path>
    <path d="M160 288h249.44a8 8 0 0 0 7.85-6.43l28.8-144a8 8 0 0 0-7.85-9.57H128" fill="none" stroke-linecap="round" stroke-linejoin="round" stroke-width="32"></path>
  </symbol>
  <symbol xmlns="http://www.w3.org/2000/svg" viewBox="0 0 512 512" id="logo-twitter">
    <title>chon twitter</title>
    <path d="M496 109.5a201.8 201.8 0 0 1-56.55 15.3 97.51 97.51 0 0 0 43.33-53.6 197.74 197.74 0 0 1-62.56 23.5A99.14 99.14 0 0 0 348.31 64c-54.42 0-98.46 43.4-98.46 96.9a93.21 93.21 0 0 0 2.54 22.1 280.7 280.7 0 0 1-203-101.3A95.69 95.69 0 0 0 36 130.4c0 33.6 17.53 63.3 44 80.7A97.5 97.5 0 0 1 35.22 199v1.2c0 47 34 86.1 79 95a100.76 100.76 0 0 1-25.94 3.4 94.38 94.38 0 0 1-18.51-1.8c12.51 38.5 48.92 66.5 92.05 67.3A199.59 199.59 0 0 1 39.5 405.6a203 203 0 0 1-23.5-1.4A278.68 278.68 0 0 0 166.74 448c181.36 0 280.44-147.7 280.44-275.8 0-4.2-.11-8.4-.31-12.5A198.48 198.48 0 0 0 496 109.5z"></path>
  </symbol>
    <title>chon instagram</title>
    <symbol xmlns="http://www.w3.org/2000/svg" viewBox="0 0 512 512" id="logo-instagram">
    <path d="M349.33 69.33a93.62 93.62 0 0 1 93.34 93.34v186.66a93.62 93.62 0 0 1-93.34 93.34H162.67a93.62 93.62 0 0 1-93.34-93.34V162.67a93.62 93.62 0 0 1 93.34-93.34h186.66m0-37.33H162.67C90.8 32 32 90.8 32 162.67v186.66C32 421.2 90.8 480 162.67 480h186.66C421.2 480 480 421.2 480 349.33V162.67C480 90.8 421.2 32 349.33 32z"></path>
    <path d="M377.33 162.67a28 28 0 1 1 28-28 27.94 27.94 0 0 1-28 28zM256 181.33A74.67 74.67 0 1 1 181.33 256 74.75 74.75 0 0 1 256 181.33m0-37.33a112 112 0 1 0 112 112 112 112 0 0 0-112-112z"></path>
  </symbol>
   <symbol xmlns="http://www.w3.org/2000/svg" viewBox="0 0 512 512" id="logo-facebook">
    <title>chon facebook</title>
    <path d="M455.27 32H56.73A24.74 24.74 0 0 0 32 56.73v398.54A24.74 24.74 0 0 0 56.73 480H256V304h-53.55v-64H256v-51c0-57.86 40.13-89.36 91.82-89.36 24.73 0 51.33 1.86 57.51 2.68v60.43h-41.18c-28.12 0-33.48 13.3-33.48 32.9V240h67l-8.75 64h-58.25v176h124.6A24.74 24.74 0 0 0 480 455.27V56.73A24.74 24.74 0 0 0 455.27 32z"></path>
  </symbol>
    <symbol xmlns="http://www.w3.org/2000/svg" viewBox="0 0 512 512" id="cash-outline">
    <rect x="32" y="80" width="448" height="256" rx="16" ry="16" transform="rotate(180 256 208)" stroke-linejoin="round" stroke-width="32"></rect>
    <path stroke-linecap="round" stroke-linejoin="round" stroke-width="32" d="M64 384h384M96 432h320"></path>
    <circle cx="256" cy="208" r="80" stroke-linecap="round" stroke-linejoin="round" stroke-width="32"></circle>
    <path d="M480 160a80 80 0 0 1-80-80M32 160a80 80 0 0 0 80-80m368 176a80 80 0 0 0-80 80M32 256a80 80 0 0 1 80 80" fill="none"  stroke-linecap="round" stroke-linejoin="round" stroke-width="32"></path>
  </symbol>
  <symbol xmlns="http://www.w3.org/2000/svg" viewBox="0 0 512 512" id="grid-outline">
    <title>ionicons-v5-i</title>
    <rect x="48" y="48" width="176" height="176" rx="20" ry="20" fill="none" stroke-linecap="round" stroke-linejoin="round" stroke-width="32"></rect>
    <rect x="288" y="48" width="176" height="176" rx="20" ry="20" fill="none" stroke-linecap="round" stroke-linejoin="round" stroke-width="32"></rect>
    <rect x="48" y="288" width="176" height="176" rx="20" ry="20" fill="none" stroke-linecap="round" stroke-linejoin="round" stroke-width="32"></rect>
    <rect x="288" y="288" width="176" height="176" rx="20" ry="20" fill="none" stroke-linecap="round" stroke-linejoin="round" stroke-width="32"></rect>
  </symbol>
    <symbol xmlns="http://www.w3.org/2000/svg" viewBox="0 0 512 512" id="star-outline">
    <title>ionicons-v5-e</title>
    <path d="M480 208H308L256 48l-52 160H32l140 96-54 160 138-100 138 100-54-160z" fill="none" stroke-linejoin="round" stroke-width="32"></path>
  </symbol>
  <symbol xmlns="http://www.w3.org/2000/svg" viewBox="0 0 512 512" id="add-outline">
    <title>ionicons-v5-a</title>
    <path fill="none" stroke-linecap="round" stroke-linejoin="round" stroke-width="32" d="M256 112v288m144-144H112"></path>
  </symbol>
    <symbol xmlns="http://www.w3.org/2000/svg" viewBox="0 0 512 512" id="desktop-outline">
    <title>ionicons-v5-h</title>
    <rect x="32" y="64" width="448" height="320" rx="32" ry="32" fill="none"  stroke-linejoin="round" stroke-width="32"></rect>
    <path  stroke-linecap="round" stroke-linejoin="round" stroke-width="32" d="M304 448l-8-64h-80l-8 64h96z"></path>
    <path fill="none"  stroke-linecap="round" stroke-linejoin="round" stroke-width="32" d="M368 448H144"></path>
    <path d="M32 304v48a32.09 32.09 0 0 0 32 32h384a32.09 32.09 0 0 0 32-32v-48zm224 64a16 16 0 1 1 16-16 16 16 0 0 1-16 16z"></path>
  </symbol>
  <symbol xmlns="http://www.w3.org/2000/svg" viewBox="0 0 512 512" id="hardware-chip-outline">
    <title>ionicons-v5-l</title>
    <rect x="80" y="80" width="352" height="352" rx="48" ry="48" fill="none"  stroke-linejoin="round" stroke-width="32"></rect>
    <rect x="144" y="144" width="224" height="224" rx="16" ry="16" fill="none"  stroke-linejoin="round" stroke-width="32"></rect>
    <path fill="none"  stroke-linecap="round" stroke-linejoin="round" stroke-width="32" d="M256 80V48m80 32V48M176 80V48m80 416v-32m80 32v-32m-160 32v-32m256-176h32m-32 80h32m-32-160h32M48 256h32m-32 80h32M48 176h32"></path>
  </symbol>
  <symbol xmlns="http://www.w3.org/2000/svg" viewBox="0 0 512 512" id="file-tray-stacked-outline">
    <title>ionicons-v5-i</title>
    <path d="M48 336v96a48.14 48.14 0 0 0 48 48h320a48.14 48.14 0 0 0 48-48v-96" fill="none"  stroke-linejoin="round" stroke-width="32"></path>
    <path fill="none"  stroke-linecap="round" stroke-linejoin="round" stroke-width="32" d="M48 336h144m128 0h144m-272 0a64 64 0 0 0 128 0"></path>
    <path d="M384 32H128c-26 0-43 14-48 40L48 192v96a48.14 48.14 0 0 0 48 48h320a48.14 48.14 0 0 0 48-48v-96L432 72c-5-27-23-40-48-40z" fill="none"  stroke-linejoin="round" stroke-width="32"></path>
    <path fill="none"  stroke-linecap="round" stroke-linejoin="round" stroke-width="32" d="M48 192h144m128 0h144m-272 0a64 64 0 0 0 128 0"></path>
  </symbol>
    <symbol xmlns="http://www.w3.org/2000/svg" viewBox="0 0 512 512" id="phone-portrait-outline">
    <title>ionicons-v5-k</title>
    <rect x="128" y="16" width="256" height="480" rx="48" ry="48" fill="none"  stroke-linecap="round" stroke-linejoin="round" stroke-width="32"></rect>
    <path d="M176 16h24a8 8 0 0 1 8 8 16 16 0 0 0 16 16h64a16 16 0 0 0 16-16 8 8 0 0 1 8-8h24" fill="none"  stroke-linecap="round" stroke-linejoin="round" stroke-width="32"></path>
  </symbol>
  <symbol xmlns="http://www.w3.org/2000/svg" viewBox="0 0 512 512" id="cube-outline">
    <title>ionicons-v5-h</title>
    <path d="M448 341.37V170.61A32 32 0 0 0 432.11 143l-152-88.46a47.94 47.94 0 0 0-48.24 0L79.89 143A32 32 0 0 0 64 170.61v170.76A32 32 0 0 0 79.89 369l152 88.46a48 48 0 0 0 48.24 0l152-88.46A32 32 0 0 0 448 341.37z" fill="none"
     stroke-linecap="round" stroke-linejoin="round" stroke-width="32"></path>
    <path fill="none" stroke-linecap="round" stroke-linejoin="round" stroke-width="32" d="M69 153.99l187 110 187-110m-187 310v-200"></path>
  </symbol>
  <symbol xmlns="http://www.w3.org/2000/svg" viewBox="0 0 512 512" id="log-out-outline">
    <title>ionicons-v5-o</title>
    <path d="M304 336v40a40 40 0 0 1-40 40H104a40 40 0 0 1-40-40V136a40 40 0 0 1 40-40h152c22.09 0 48 17.91 48 40v40m64 160l80-80-80-80m-192 80h256" fill="none" stroke="#000" stroke-linecap="round" stroke-linejoin="round" stroke-width="32"></path>
  </symbol>
    <symbol xmlns="http://www.w3.org/2000/svg" viewBox="0 0 512 512" id="hand-right-outline">
    <title>ionicons-v5-i</title>
    <path d="M432 320V144a32 32 0 0 0-32-32 32 32 0 0 0-32 32v112m0 0V80a32 32 0 0 0-32-32 32 32 0 0 0-32 32v160m-64 1V96a32 32 0 0 0-32-32 32 32 0 0 0-32 32v224m128-80V48a32 32 0 0 0-32-32 32 32 0 0 0-32 32v192" fill="none" stroke="#000"
      stroke-linecap="round" stroke-linejoin="round" stroke-width="32"></path>
    <path d="M432 320c0 117.4-64 176-152 176s-123.71-39.6-144-88L83.33 264c-6.66-18.05-3.64-34.79 11.87-43.6 15.52-8.82 35.91-4.28 44.31 11.68L176 320" fill="none" stroke="#000" stroke-linecap="round" stroke-linejoin="round" stroke-width="32"></path>
  </symbol>
  <symbol xmlns="http://www.w3.org/2000/svg" viewBox="0 0 512 512" id="trash-outline">
    <path d="M112 112l20 320c.95 18.49 14.4 32 32 32h184c17.67 0 30.87-13.51 32-32l20-320" fill="none" stroke-linecap="round" stroke-linejoin="round" stroke-width="32"></path>
    <path stroke-linecap="round" stroke-miterlimit="10" stroke-width="32" d="M80 112h352"></path>
    <path d="M192 112V72a23.93 23.93 0 0 1 24-24h80a23.93 23.93 0 0 1 24 24v40m-64 64v224m-72-224l8 224m136-224l-8 224" fill="none" stroke-linecap="round" stroke-linejoin="round" stroke-width="32"></path>
  </symbol>
  <symbol xmlns="http://www.w3.org/2000/svg" viewBox="0 0 512 512" id="call">
    <path d="M391 480c-19.52 0-46.94-7.06-88-30-49.93-28-88.55-53.85-138.21-103.38C116.91 298.77 93.61 267.79 61 208.45c-36.84-67-30.56-102.12-23.54-117.13C45.82 73.38 58.16 62.65 74.11 52a176.3 176.3 0 0 1 28.64-15.2c1-.43 1.93-.84 2.76-1.21 4.95-2.23 12.45-5.6 21.95-2 6.34 2.38 12 7.25 20.86 16 18.17 17.92 43 57.83 52.16 77.43 6.15 13.21 10.22 21.93 10.23 31.71 0 11.45-5.76 20.28-12.75 29.81-1.31 1.79-2.61 3.5-3.87 5.16-7.61 10-9.28 12.89-8.18 18.05 2.23 10.37 18.86 41.24 46.19 68.51s57.31 42.85 67.72 45.07c5.38 1.15 8.33-.59 18.65-8.47 1.48-1.13 3-2.3 4.59-3.47 10.66-7.93 19.08-13.54 30.26-13.54h.06c9.73 0 18.06 4.22 31.86 11.18 18 9.08 59.11 33.59 77.14 51.78 8.77 8.84 13.66 14.48 16.05 20.81 3.6 9.53.21 17-2 22-.37.83-.78 1.74-1.21 2.75a176.49 176.49 0 0 1-15.29 28.58c-10.63 15.9-21.4 28.21-39.38 36.58A67.42 67.42 0 0 1 391 480z"></path>
  </symbol>
  <symbol xmlns="http://www.w3.org/2000/svg" viewBox="0 0 512 512" id="person-add-outline">
    <path d="M376 144c-3.92 52.87-44 96-88 96s-84.15-43.12-88-96c-4-55 35-96 88-96s92 42 88 96z" fill="none" stroke-linecap="round" stroke-linejoin="round" stroke-width="32"></path>
    <path d="M288 304c-87 0-175.3 48-191.64 138.6-2 10.92 4.21 21.4 15.65 21.4H464c11.44 0 17.62-10.48 15.65-21.4C463.3 352 375 304 288 304z" fill="none" stroke-miterlimit="10" stroke-width="32"></path>
    <path fill="none" stroke-linecap="round" stroke-linejoin="round" stroke-width="32" d="M88 176v112m56-56H32"></path>
  </symbol>
  <symbol xmlns="http://www.w3.org/2000/svg" viewBox="0 0 512 512" id="create-outline">
    <path d="M384 224v184a40 40 0 0 1-40 40H104a40 40 0 0 1-40-40V168a40 40 0 0 1 40-40h167.48" fill="none" stroke-linecap="round" stroke-linejoin="round" stroke-width="32"></path>
    <path d="M459.94 53.25a16.06 16.06 0 0 0-23.22-.56L424.35 65a8 8 0 0 0 0 11.31l11.34 11.32a8 8 0 0 0 11.34 0l12.06-12c6.1-6.09 6.67-16.01.85-22.38zM399.34 90L218.82 270.2a9 9 0 0 0-2.31 3.93L208.16 299a3.91 3.91 0 0 0 4.86 4.86l24.85-8.35a9 9 0 0 0 3.93-2.31L422 112.66a9 9 0 0 0 0-12.66l-9.95-10a9 9 0 0 0-12.71 0z"></path>
  </symbol>
  <symbol xmlns="http://www.w3.org/2000/svg" viewBox="0 0 512 512" id="images-outline">
    <path d="M432 112V96a48.14 48.14 0 0 0-48-48H64a48.14 48.14 0 0 0-48 48v256a48.14 48.14 0 0 0 48 48h16" fill="none" stroke-linejoin="round" stroke-width="32"></path>
    <rect x="96" y="128" width="400" height="336" rx="45.99" ry="45.99" fill="none" stroke-linejoin="round" stroke-width="32"></rect>
    <ellipse cx="372.92" cy="219.64" rx="30.77" ry="30.55" fill="none" stroke-miterlimit="10" stroke-width="32"></ellipse>
    <path d="M342.15 372.17L255 285.78a30.93 30.93 0 0 0-42.18-1.21L96 387.64M265.23 464l118.59-117.73a31 31 0 0 1 41.46-1.87L496 402.91" fill="none" stroke-linecap="round" stroke-linejoin="round" stroke-width="32"></path>
  </symbol>
  <symbol xmlns="http://www.w3.org/2000/svg" viewBox="0 0 512 512" id="caret-down-outline">
    <path d="M98 190.06l139.78 163.12a24 24 0 0 0 36.44 0L414 190.06c13.34-15.57 2.28-39.62-18.22-39.62h-279.6c-20.5 0-31.56 24.05-18.18 39.62z"></path>
  </symbol>
</svg>